<?xml version="1.0" standalone="no"?>
<!DOCTYPE svg PUBLIC "-//W3C//DTD SVG 20010904//EN"
 "http://www.w3.org/TR/2001/REC-SVG-20010904/DTD/svg10.dtd">
<svg version="1.0" xmlns="http://www.w3.org/2000/svg"
 width="813.000000pt" height="265.000000pt" viewBox="0 0 813.000000 265.000000"
 preserveAspectRatio="xMidYMid meet">

<g transform="translate(0.000000,265.000000) scale(0.100000,-0.100000)"
fill="#000000" stroke="none">
<path d="M350 2507 c3 -3 43 -10 90 -17 569 -74 979 -316 1163 -685 47 -94 73
-182 86 -294 11 -87 6 -241 -8 -241 -3 0 -80 128 -171 286 -185 321 -234 385
-333 434 l-62 30 -382 3 -381 2 -43 -30 c-27 -19 -54 -52 -76 -91 -62 -114
-63 -119 -63 -951 l0 -753 368 0 c387 0 478 7 665 51 114 27 272 81 349 120
l58 29 50 -100 50 -100 159 0 c87 0 219 -3 294 -7 l136 -6 -170 297 -170 298
15 47 c46 136 80 383 80 581 1 155 -19 252 -83 400 -120 280 -381 496 -736
610 -236 75 -282 82 -600 87 -159 3 -288 3 -285 0z m524 -852 c203 -341 498
-849 507 -873 7 -19 3 -26 -29 -46 -119 -78 -409 -125 -619 -100 l-53 7 0 551
c0 553 4 615 37 665 15 24 16 24 30 5 8 -10 65 -104 127 -209z"/>
<path d="M2360 1574 l0 -347 83 5 c107 6 173 34 232 100 67 75 88 141 83 263
-5 120 -28 174 -106 247 -59 55 -124 78 -224 78 l-68 0 0 -346z m187 269 c110
-52 178 -196 152 -323 -22 -108 -97 -197 -190 -224 -97 -29 -89 -56 -89 280
l0 297 46 -7 c25 -3 62 -13 81 -23z"/>
<path d="M4270 1575 l0 -345 30 0 c26 0 30 4 30 27 0 24 1 25 18 11 54 -48
173 -64 246 -34 152 63 182 306 51 414 -79 64 -217 68 -284 8 -10 -9 -21 -16
-24 -16 -4 0 -7 63 -7 140 l0 140 -30 0 -30 0 0 -345z m303 48 c40 -20 85 -88
93 -139 9 -60 -16 -123 -65 -167 -65 -58 -137 -61 -202 -7 -46 37 -69 86 -69
144 0 59 19 103 61 143 55 51 115 60 182 26z"/>
<path d="M3520 1750 l0 -90 -40 0 c-36 0 -40 -2 -40 -25 0 -22 4 -25 40 -25
l40 0 0 -190 0 -190 25 0 25 0 0 190 0 190 40 0 c36 0 40 3 40 25 0 23 -4 25
-40 25 l-40 0 0 90 c0 89 0 90 -25 90 -25 0 -25 -1 -25 -90z"/>
<path d="M2881 1796 c-16 -19 -11 -56 10 -69 9 -5 28 -7 43 -3 24 6 27 11 24
44 -3 33 -6 37 -34 40 -18 2 -36 -3 -43 -12z"/>
<path d="M4061 1796 c-16 -19 -11 -56 10 -69 9 -5 28 -7 43 -3 24 6 27 11 24
44 -3 33 -6 37 -34 40 -18 2 -36 -3 -43 -12z"/>
<path d="M5851 1796 c-16 -19 -11 -56 10 -69 9 -5 28 -7 43 -3 24 6 27 11 24
44 -3 33 -6 37 -34 40 -18 2 -36 -3 -43 -12z"/>
<path d="M5466 1685 c-89 -32 -145 -119 -146 -226 0 -150 85 -239 228 -239 78
0 141 26 176 73 18 24 19 29 6 37 -22 14 -57 12 -63 -4 -7 -19 -87 -56 -121
-56 -31 0 -94 30 -118 57 -45 49 -61 143 -34 206 17 42 76 93 121 106 44 12
94 -1 134 -34 31 -26 75 -33 87 -13 11 17 -70 85 -115 98 -49 14 -108 12 -155
-5z"/>
<path d="M6186 1685 c-89 -32 -145 -119 -146 -226 0 -104 42 -179 123 -220 60
-31 178 -24 235 13 91 61 128 199 82 306 -50 116 -174 170 -294 127z m155 -61
c15 -7 38 -27 52 -43 80 -95 50 -239 -60 -292 -172 -83 -319 170 -175 304 56
53 119 64 183 31z"/>
<path d="M7206 1685 c-89 -32 -145 -119 -146 -226 0 -150 85 -239 228 -239 78
0 141 26 176 73 18 24 19 29 6 37 -22 14 -57 12 -63 -4 -7 -18 -87 -56 -120
-56 -29 0 -97 29 -97 41 0 4 60 71 133 149 72 78 133 147 135 155 4 18 -52 62
-96 75 -50 14 -109 12 -156 -5z m152 -59 c22 -12 20 -16 -95 -139 l-118 -127
-12 27 c-29 67 -10 155 45 206 55 52 119 64 180 33z"/>
<path d="M6700 1670 c-8 -5 -32 -10 -52 -10 l-38 0 0 -215 0 -215 30 0 30 0 0
168 0 168 28 26 c42 42 74 50 113 30 67 -34 74 -55 77 -233 l4 -159 24 0 24 0
0 170 c0 188 -5 207 -60 254 -27 22 -41 26 -98 26 -37 0 -74 -5 -82 -10z"/>
<path d="M3146 1639 c-18 -22 -26 -42 -26 -70 0 -55 11 -72 78 -118 72 -49 83
-62 84 -101 1 -36 -35 -80 -67 -80 -25 0 -59 34 -70 68 -4 15 -12 21 -22 18
-8 -3 -19 -6 -24 -6 -5 0 -9 -14 -9 -31 0 -22 10 -41 34 -65 30 -30 40 -34 88
-34 83 0 128 45 128 130 0 56 -20 91 -72 125 -66 43 -88 66 -88 95 0 55 51 68
78 20 22 -39 56 -38 60 2 5 45 -36 78 -97 78 -43 0 -53 -4 -75 -31z"/>
<path d="M3866 1645 c-34 -23 -36 -23 -36 -5 0 16 -7 20 -30 20 l-30 0 0 -215
0 -215 30 0 30 0 0 128 c0 115 2 134 23 173 13 24 40 55 60 68 25 17 37 32 37
48 0 31 -36 31 -84 -2z"/>
<path d="M7646 1639 c-18 -22 -26 -42 -26 -70 0 -55 11 -72 78 -118 72 -49 83
-62 84 -101 1 -36 -35 -80 -67 -80 -25 0 -59 34 -70 68 -4 15 -12 21 -22 18
-8 -3 -19 -6 -24 -6 -5 0 -9 -14 -9 -31 0 -22 10 -41 34 -65 30 -30 40 -34 88
-34 83 0 128 45 128 130 0 56 -20 91 -72 125 -66 43 -88 66 -88 95 0 55 51 68
78 20 22 -39 56 -38 60 2 5 45 -36 78 -97 78 -43 0 -53 -4 -75 -31z"/>
<path d="M2890 1445 l0 -215 30 0 30 0 0 215 0 215 -30 0 -30 0 0 -215z"/>
<path d="M4070 1445 l0 -215 30 0 30 0 0 215 0 215 -30 0 -30 0 0 -215z"/>
<path d="M4850 1507 c0 -139 2 -157 23 -197 30 -60 62 -81 133 -87 49 -4 67 0
103 19 73 38 81 64 81 255 l0 163 -25 0 -25 0 0 -135 c0 -146 -9 -183 -51
-221 -35 -31 -63 -37 -103 -20 -65 27 -76 60 -76 229 l0 147 -30 0 -30 0 0
-153z"/>
<path d="M5860 1445 l0 -215 30 0 30 0 0 215 0 215 -30 0 -30 0 0 -215z"/>
<path d="M2508 763 c-100 -192 -183 -352 -183 -358 0 -5 18 -10 39 -10 l39 0
66 125 66 125 167 3 167 2 68 -130 68 -130 40 2 c22 2 40 7 39 12 -1 21 -370
706 -380 706 -7 0 -95 -156 -196 -347z m288 25 c19 -37 34 -70 34 -73 0 -3
-56 -5 -125 -5 -69 0 -125 4 -125 9 0 5 28 62 61 126 l62 117 29 -54 c16 -29
45 -83 64 -120z"/>
<path d="M3230 910 l0 -90 -40 0 c-36 0 -40 -2 -40 -25 0 -22 4 -25 40 -25
l40 0 0 -190 0 -190 25 0 25 0 0 190 0 190 40 0 c36 0 40 3 40 25 0 23 -4 25
-40 25 l-40 0 0 90 c0 89 0 90 -25 90 -25 0 -25 -1 -25 -90z"/>
<path d="M4410 910 l0 -90 -40 0 c-36 0 -40 -2 -40 -25 0 -22 4 -25 40 -25
l40 0 0 -190 0 -190 25 0 25 0 0 190 0 190 40 0 c36 0 40 3 40 25 0 23 -4 25
-40 25 l-40 0 0 90 c0 89 0 90 -25 90 -25 0 -25 -1 -25 -90z"/>
<path d="M3907 846 c-99 -36 -152 -116 -152 -231 1 -81 23 -134 79 -182 46
-41 95 -56 171 -51 47 3 73 11 104 31 l41 27 0 -25 c0 -21 5 -25 30 -25 l30 0
0 215 0 215 -30 0 c-21 0 -30 -5 -30 -17 0 -14 -3 -13 -23 5 -50 47 -147 64
-220 38z m161 -68 c50 -31 82 -94 82 -162 0 -63 -9 -86 -49 -129 -55 -60 -121
-73 -191 -37 -142 72 -125 291 26 345 45 16 85 11 132 -17z"/>
<path d="M4796 848 c-53 -14 -128 -90 -144 -144 -47 -160 41 -311 188 -322 92
-7 126 4 180 54 96 90 107 232 26 339 -51 67 -160 98 -250 73z m122 -53 c106
-45 150 -160 101 -262 -59 -122 -198 -136 -283 -30 -25 31 -31 49 -34 101 -5
72 8 104 59 154 30 29 71 49 107 51 7 1 29 -6 50 -14z"/>
<path d="M3610 823 c-8 -3 -27 -15 -42 -25 -28 -19 -28 -19 -28 1 0 17 -6 21
-30 21 l-30 0 0 -215 0 -215 30 0 30 0 0 133 c0 118 3 136 23 172 12 22 39 51
60 64 58 38 48 87 -13 64z"/>
</g>
</svg>
